{"title":"Lemmy *2010* [BRRip.DivX]","uid":7266930,"size":2843660790,"categoryP":"video","categoryS":"movies","magnet":"?xt=urn:btih:b9f9fb7494dffa8203e850203f817585e8b30a36&amp;dn=Lemmy+%2A2010%2A+%5BBRRip.DivX%5D&amp;tr=udp%3A%2F%2Ftracker.openbittorrent.com%3A80&amp;tr=udp%3A%2F%2Fopen.demonii.com%3A1337&amp;tr=udp%3A%2F%2Ftracker.coppersurfer.tk%3A6969&amp;tr=udp%3A%2F%2Fexodus.desync.com%3A6969","seeders":1,"leechers":0,"uploader":"qculfj","files":2,"time":1336927770,"description":"General\nComplete name : Lemmy 2010 BRRip XvidHD 720p-NPW Up BylbowLemmy 2010 BRRip XvidHD 720p-NPW.avi\nFormat : AVI\nFormat/Info : Audio Video Interleave\nFormat profile : OpenDML\nFile size : 2.65 GiB\nDuration : 1h 56mn\nOverall bit rate : 3 249 Kbps\nWriting application : VirtualDubMod 1.5.10.2 (build 2540/release)\nWriting library : VirtualDubMod build 2540/release\n\nVideo\nID : 0\nFormat : MPEG-4 Visual\nFormat profile : AdvancedSimple@L5\nFormat settings, BVOP : Yes\nFormat settings, QPel : No\nFormat settings, GMC : No warppoints\nFormat settings, Matrix : Default (H.263)\nCodec ID : XVID\nCodec ID/Hint : XviD\nDuration : 1h 56mn\nBit rate : 2 598 Kbps\nWidth : 1 280 pixels\nHeight : 720 pixels\nDisplay aspect ratio : 16:9\nFrame rate : 23.976 fps\nResolution : 24 bits\nColorimetry : 4:2:0\nScan type : Progressive\nBits/(Pixel*Frame) : 0.118\nStream size : 2.12 GiB (80%)\nWriting library : XviD 1.2.1 (UTC 2008-12-04)\n\nAudio\nID : 1\nFormat : AC-3\nFormat/Info : Audio Coding 3\nCodec ID : 2000\nDuration : 1h 56mn\nBit rate mode : Constant\nBit rate : 640 Kbps\nChannel(s) : 6 channels\nChannel positions : Front: L C R, Surround: L R, LFE\nSampling rate : 48.0 KHz\nStream size : 534 MiB (20%)\nAlignment : Aligned on interleaves\nInterleave, duration : 42 ms (1.00 video frame)\nInterleave, preload duration : 512 ms\n","torrent":{"xt":"urn:btih:b9f9fb7494dffa8203e850203f817585e8b30a36","amp;dn":"Lemmy+%2A2010%2A+%5BBRRip.DivX%5D","amp;tr":["udp%3A%2F%2Ftracker.openbittorrent.com%3A80","udp%3A%2F%2Fopen.demonii.com%3A1337","udp%3A%2F%2Ftracker.coppersurfer.tk%3A6969","udp%3A%2F%2Fexodus.desync.com%3A6969"],"infoHash":"b9f9fb7494dffa8203e850203f817585e8b30a36","infoHashBuffer":{"type":"Buffer","data":[185,249,251,116,148,223,250,130,3,232,80,32,63,129,117,133,232,179,10,54]},"announce":[],"urlList":[]}}